<svg xmlns="http://www.w3.org/2000/svg" viewBox="0 0 448 512"><!--!Font Awesome Free 6.5.2 by @fontawesome - https://fontawesome.com License - https://fontawesome.com/license/free Copyright 2024 Fonticons, Inc.--><path fill="#FFD43B" d="M384 32H64A64 64 0 0 0 0 96V416a64 64 0 0 0 64 64H384a64 64 0 0 0 64-64V96A64 64 0 0 0 384 32zm-3.9 319.3-.1 .1a32.4 32.4 0 0 1 -8.7 6.8 90.3 90.3 0 0 1 -20.6 8.2 12.7 12.7 0 0 0 -3.9 1.8c-2.2 1.9-2.1 4.6-4.4 8.6a23.1 23.1 0 0 1 -6.8 7.5c-6.7 4.6-14.2 4.9-22.2 5.2-7.2 .3-15.4 .6-24.7 3.7-3.8 1.2-7.8 3.7-12.4 6.5-11.3 6.9-26.7 16.4-52.3 16.4s-40.9-9.4-52.1-16.3c-4.7-2.9-8.7-5.4-12.5-6.6-9.3-3.1-17.5-3.4-24.7-3.7-8-.3-15.5-.6-22.2-5.2a23.1 23.1 0 0 1 -6-6.1c-3.2-4.6-2.9-7.8-5.3-9.9a13.4 13.4 0 0 0 -4.1-1.8 90 90 0 0 1 -20.3-8.1 32.9 32.9 0 0 1 -8.3-6.3c-6.6-6.8-8.3-14.8-5.7-21.8 3.4-9.3 11.6-12.1 19.4-16.3 14.8-8 26.3-18.1 34.4-29.9a68.2 68.2 0 0 0 6-10.6c.8-2.2 .8-3.3 .2-4.4a7.4 7.4 0 0 0 -2.2-2.2c-2.5-1.7-5.1-3.4-6.9-4.5-3.3-2.1-5.9-3.8-7.5-5-6.3-4.4-10.7-9-13.4-14.2a28.4 28.4 0 0 1 -1.4-23.6c4.1-10.9 14.5-17.7 27-17.7a37.1 37.1 0 0 1 7.8 .8c.7 .2 1.4 .3 2 .5-.1-7.4 .1-15.4 .7-23.1 2.4-27.3 11.9-41.6 21.9-53a86.8 86.8 0 0 1 22.3-17.9C188.3 100.4 205.3 96 224 96s35.8 4.4 50.9 13a87.2 87.2 0 0 1 22.2 17.9c10 11.4 19.5 25.7 21.9 53a231.2 231.2 0 0 1 .7 23.1c.7-.2 1.4-.3 2.1-.5a37.1 37.1 0 0 1 7.8-.8c12.5 0 22.8 6.8 27 17.7a28.4 28.4 0 0 1 -1.4 23.6c-2.7 5.2-7.1 9.9-13.4 14.2-1.7 1.2-4.3 2.9-7.5 5-1.8 1.2-4.5 2.9-7.2 4.7a6.9 6.9 0 0 0 -2 2c-.5 1-.5 2.2 .2 4.2a69 69 0 0 0 6.1 10.8c8.3 12.1 20.2 22.3 35.5 30.4 1.5 .8 3 1.5 4.4 2.3 .7 .3 1.6 .8 2.5 1.3 4.9 2.7 9.2 6 11.5 12.2C387.8 336.9 386.3 344.7 380.1 351.3zm-16.7-18.5c-50.3-24.3-58.3-61.9-58.7-64.7-.4-3.4-.9-6 2.8-9.5 3.6-3.3 19.5-13.2 24-16.3 7.3-5.1 10.5-10.2 8.2-16.5-1.7-4.3-5.7-6-10-6a18.5 18.5 0 0 0 -4 .4c-8 1.7-15.8 5.8-20.4 6.9a7.1 7.1 0 0 1 -1.7 .2c-2.4 0-3.3-1.1-3.1-4 .6-8.8 1.8-25.9 .4-41.9-1.9-22-9-32.9-17.4-42.6-4.1-4.6-23.1-24.7-59.5-24.7S168.5 134.4 164.5 139c-8.4 9.7-15.5 20.6-17.4 42.6-1.4 16-.1 33.1 .4 41.9 .2 2.8-.7 4-3.1 4a7.1 7.1 0 0 1 -1.7-.2c-4.5-1.1-12.3-5.1-20.3-6.9a18.5 18.5 0 0 0 -4-.4c-4.3 0-8.3 1.6-10 6-2.4 6.3 .8 11.4 8.2 16.5 4.4 3.1 20.4 13 24 16.3 3.7 3.4 3.2 6.1 2.8 9.5-.4 2.8-8.4 40.4-58.7 64.7-2.9 1.4-8 4.5 .9 9.3 13.9 7.6 23.1 6.8 30.3 11.4 6.1 3.9 2.5 12.4 6.9 15.4 5.5 3.8 21.6-.3 42.3 6.6 17.4 5.7 28.1 22 59 22s41.8-16.3 58.9-22c20.8-6.9 36.9-2.8 42.3-6.6 4.4-3.1 .8-11.5 6.9-15.4 7.2-4.6 16.4-3.8 30.3-11.5C371.4 337.4 366.3 334.3 363.4 332.8z"/></svg>